<svg width="253" height="68" viewBox="0 0 253 68" fill="none" xmlns="http://www.w3.org/2000/svg">
<path d="M37.8068 43.4736L39.1668 44.1136C35.4868 49.3136 29.4068 57.9536 17.8068 57.9536C7.4068 57.9536 0.766797 50.1136 0.766797 38.3536C0.766797 20.8336 17.5668 0.833632 33.8868 0.833632C41.0868 0.833632 46.1268 4.99363 46.1268 12.9936C46.1268 23.3936 36.3668 37.0736 25.5668 37.0736C20.4468 37.0736 17.0068 33.9536 17.0068 28.6736C17.0068 19.3936 25.6468 14.1136 31.4868 12.5936L32.0468 13.6336C25.8068 16.5136 19.8868 21.3136 19.8868 28.6736C19.8868 32.7536 22.7668 35.4736 26.8468 35.4736C35.2468 35.4736 43.2468 23.0736 43.2468 12.8336C43.2468 6.99363 39.3268 2.43363 33.0868 2.43363C18.6868 2.43363 4.5268 22.2736 4.5268 39.2336C4.5268 49.6336 9.5668 56.1936 18.4468 56.1936C28.7668 56.1936 33.6468 48.7536 37.8068 43.4736ZM64.073 52.2736L64.793 52.9936C63.353 55.7936 60.953 57.9536 58.953 57.9536C56.713 57.9536 56.713 56.5136 56.713 54.5936C53.993 56.9936 53.273 57.9536 50.473 57.9536C47.433 57.9536 45.033 55.6336 45.033 52.1936C45.033 47.5536 50.233 41.4736 54.953 41.4736C57.433 41.4736 58.153 42.7536 59.193 44.1936L59.833 41.9536H62.473L59.593 53.7936C59.433 54.1936 59.353 54.8336 59.353 55.0736C59.353 55.6336 59.673 56.0336 60.073 56.0336C61.273 56.0336 62.393 54.6736 64.073 52.2736ZM56.873 52.8336L58.473 46.9136C58.633 46.3536 58.713 45.9536 58.713 45.6336C58.713 44.8336 57.353 42.5936 55.273 42.5936C51.833 42.5936 48.473 47.6336 48.473 51.7936C48.473 54.5136 49.913 55.9536 52.233 55.9536C52.953 55.9536 54.393 55.3936 55.433 54.6736C56.313 54.1136 56.633 53.7136 56.873 52.8336ZM79.1387 43.5536H74.8987C73.6187 50.6736 71.1387 67.8736 65.2987 67.8736C64.0987 67.8736 62.7387 67.1536 62.7387 65.3936C62.7387 64.5936 63.4587 63.8736 64.0187 63.8736C66.0987 63.8736 64.8187 66.2736 66.4987 66.2736C68.7387 66.2736 70.8987 50.9136 72.0187 43.5536H68.6587L69.1387 41.9536H72.4187C76.0987 22.4336 79.0587 2.43363 86.1787 2.43363C87.3787 2.43363 88.8987 3.15363 88.8987 4.43363C88.8987 5.39363 88.3387 6.43363 87.2987 6.43363C86.1787 6.43363 86.0187 4.03363 85.0587 4.03363C81.4587 4.03363 78.6587 23.4736 75.2987 41.9536H79.4587L79.1387 43.5536ZM92.498 43.5536H88.258C86.978 50.6736 84.498 67.8736 78.658 67.8736C77.458 67.8736 76.098 67.1536 76.098 65.3936C76.098 64.5936 76.818 63.8736 77.378 63.8736C79.458 63.8736 78.178 66.2736 79.858 66.2736C82.098 66.2736 84.258 50.9136 85.378 43.5536H82.018L82.498 41.9536H85.778C89.458 22.4336 92.418 2.43363 99.538 2.43363C100.738 2.43363 102.258 3.15363 102.258 4.43363C102.258 5.39363 101.698 6.43363 100.658 6.43363C99.538 6.43363 99.378 4.03363 98.418 4.03363C94.818 4.03363 92.018 23.4736 88.658 41.9536H92.818L92.498 43.5536ZM107.057 53.5536L107.937 54.4336C107.297 54.9936 104.097 57.9536 100.417 57.9536C97.0574 57.9536 94.0974 55.5536 94.0974 51.8736C94.0974 47.0736 99.2974 41.4736 104.017 41.4736C106.577 41.4736 108.337 43.2336 108.337 45.2336C108.337 49.3936 101.857 51.1536 99.8574 51.1536H97.7774V51.9536C97.7774 53.9536 98.9774 56.1136 101.617 56.1136C104.097 56.1136 105.777 54.5936 107.057 53.5536ZM97.7774 50.0336H99.3774C102.257 50.0336 105.457 47.8736 105.457 45.4736C105.457 44.0336 104.017 43.0736 102.577 43.0736C99.2174 43.0736 97.8574 48.9136 97.7774 50.0336ZM105.297 37.2336L104.577 37.9536C100.817 35.9536 99.2974 34.1936 97.2174 31.3936L100.417 31.0736C101.857 33.4736 102.977 35.2336 105.297 37.2336ZM142.667 44.1936L141.707 43.4736C142.507 38.9136 147.147 28.5136 157.467 28.5136C163.867 28.5136 169.867 33.3936 169.867 40.2736C169.867 50.2736 159.627 57.9536 147.467 57.9536C135.787 57.9536 127.627 51.5536 127.627 42.9936C127.627 30.7536 138.427 25.1536 147.227 22.9136C149.067 22.5136 150.347 22.0336 150.347 21.5536C150.347 21.1536 148.907 21.0736 147.227 20.6736C144.187 20.0336 141.307 19.0736 141.307 13.5536C141.307 6.75363 148.907 0.833632 157.147 0.833632C163.707 0.833632 168.187 4.91363 168.187 7.55363C168.187 9.95363 166.667 11.2336 165.227 11.2336C164.187 11.2336 163.307 10.5936 163.307 9.63363C163.307 7.23363 166.027 8.03363 166.027 6.91363C166.027 5.79363 164.027 2.43363 157.467 2.43363C150.507 2.43363 144.907 8.35363 144.907 13.9536C144.907 17.8736 147.947 19.7136 149.867 19.8736C151.147 20.0336 151.627 20.3536 151.627 21.3136C151.627 22.1936 150.987 22.9936 149.787 23.4736C143.147 26.5936 131.867 28.9936 131.867 42.4336C131.867 50.1136 137.867 56.3536 147.787 56.3536C158.667 56.3536 167.947 49.5536 167.947 40.7536C167.947 34.8336 162.907 30.8336 157.147 30.8336C148.267 30.8336 144.107 38.9136 142.667 44.1936ZM180.977 65.9536L181.297 66.6736C180.897 66.9136 179.377 67.8736 178.017 67.8736C176.817 67.8736 176.177 67.0736 174.577 65.6336C173.057 66.9936 172.257 67.6336 171.137 67.6336C170.177 67.6336 169.457 67.1536 169.457 66.5136C169.457 64.5136 172.417 63.9536 173.937 63.5536C174.657 61.7136 175.217 59.7936 176.177 55.3136L178.417 44.0336C177.137 44.9136 176.577 45.6336 174.977 46.9136L174.177 46.1936C175.697 44.7536 176.417 44.0336 178.497 42.4336C180.817 35.9536 181.697 33.3936 184.977 31.2336L185.457 31.7136C183.057 34.5136 182.817 36.1936 181.537 41.7136C182.257 41.6336 182.977 41.4736 183.777 41.4736C187.457 41.4736 191.457 43.6336 191.457 47.8736C191.457 52.3536 187.297 57.9536 183.137 57.9536C181.457 57.9536 179.617 56.9936 179.617 55.3136C179.617 54.5136 180.177 53.7936 180.977 53.7936C181.777 53.7936 182.017 54.4336 182.017 55.6336C182.017 56.4336 182.257 56.8336 183.217 56.8336C186.577 56.8336 188.017 52.1136 188.017 48.8336C188.017 44.5136 185.617 42.5936 183.137 42.5936C182.497 42.5936 181.857 42.8336 181.217 42.9936C179.937 50.8336 179.137 56.5936 175.217 63.9536L177.857 65.3936C178.417 65.6336 179.217 66.2736 179.537 66.2736C180.017 66.2736 180.497 66.0336 180.977 65.9536ZM171.297 66.5136C172.497 66.5136 173.537 65.3936 173.777 64.6736C172.657 64.9136 170.657 65.3936 170.657 66.1936C170.657 66.4336 170.897 66.5136 171.297 66.5136ZM200.881 57.9536C197.361 57.9536 194.481 55.7936 194.481 52.0336C194.481 47.0736 199.921 41.4736 205.441 41.4736C209.041 41.4736 211.921 43.6336 211.921 47.7136C211.921 53.3936 206.001 57.9536 200.881 57.9536ZM198.161 52.2736C198.161 55.3936 199.601 56.8336 202.001 56.8336C206.241 56.8336 209.041 50.5136 209.041 46.6736C209.041 44.1936 207.201 42.5936 205.201 42.5936C200.881 42.5936 198.161 48.5936 198.161 52.2736ZM228.304 52.8336L229.104 53.6336C227.424 55.2336 224.704 57.9536 221.104 57.9536C218.064 57.9536 215.664 55.9536 215.664 52.5936C215.664 47.1536 221.024 41.4736 225.984 41.4736C228.144 41.4736 229.904 42.9136 229.904 44.8336C229.904 45.7936 229.184 46.7536 227.904 46.7536C227.424 46.7536 227.024 46.5136 227.024 45.7936V44.5936C227.024 43.3136 226.624 42.5936 225.424 42.5936C221.984 42.5936 219.184 48.0336 219.184 52.2736C219.184 54.4336 220.304 56.1136 222.384 56.1136C224.624 56.1136 226.544 54.4336 228.304 52.8336ZM252.198 52.2736L252.918 52.9936C251.478 55.7936 249.078 57.9536 247.078 57.9536C244.838 57.9536 244.838 56.5136 244.838 54.5936C242.118 56.9936 241.398 57.9536 238.598 57.9536C235.558 57.9536 233.158 55.6336 233.158 52.1936C233.158 47.5536 238.358 41.4736 243.078 41.4736C245.558 41.4736 246.278 42.7536 247.318 44.1936L247.958 41.9536H250.598L247.718 53.7936C247.558 54.1936 247.478 54.8336 247.478 55.0736C247.478 55.6336 247.798 56.0336 248.198 56.0336C249.398 56.0336 250.518 54.6736 252.198 52.2736ZM244.998 52.8336L246.598 46.9136C246.758 46.3536 246.838 45.9536 246.838 45.6336C246.838 44.8336 245.478 42.5936 243.398 42.5936C239.958 42.5936 236.598 47.6336 236.598 51.7936C236.598 54.5136 238.038 55.9536 240.358 55.9536C241.078 55.9536 242.518 55.3936 243.558 54.6736C244.438 54.1136 244.758 53.7136 244.998 52.8336Z" fill="#FF0012"/>
</svg>
