<svg width="179" height="84" viewBox="0 0 179 84" fill="none" xmlns="http://www.w3.org/2000/svg">
<path d="M0.265443 76.1691C-0.109305 76.5748 -0.084209 77.2075 0.321477 77.5823L6.93262 83.689C7.33831 84.0638 7.97098 84.0387 8.34572 83.633C8.72046 83.2273 8.69537 82.5946 8.28969 82.2199L2.41312 76.7916L7.84136 70.9151C8.21611 70.5094 8.19102 69.8767 7.78532 69.502C7.37963 69.1272 6.74696 69.1523 6.37222 69.558L0.265443 76.1691ZM90.6576 2.76161C114.258 11.3628 136.394 19.6984 152.342 27.5228C160.323 31.4382 166.692 35.1959 170.912 38.7591C175.194 42.3755 176.96 45.5301 176.492 48.2519C176.02 50.9996 173.177 53.9213 166.565 56.7946C160.032 59.6334 150.147 62.2821 136.263 64.689C108.509 69.5004 65.0104 73.3084 0.960386 75.8485L1.03963 77.8469C65.1087 75.3061 108.716 71.4945 136.604 66.6596C150.542 64.2435 160.611 61.5625 167.362 58.6289C174.033 55.7298 177.802 52.4366 178.463 48.5907C179.128 44.7189 176.549 40.9013 172.202 37.231C167.792 33.5074 161.247 29.6638 153.223 25.7273C137.163 17.8479 114.926 9.47748 91.3425 0.882509L90.6576 2.76161Z" fill="#4D4D4D"/>
</svg>
