<svg width="80" height="71" viewBox="0 0 80 71" fill="none" xmlns="http://www.w3.org/2000/svg">
<path d="M41.8946 36.8458L42.2792 35.9227L41.8946 36.8458ZM73.4958 70.3639C73.9727 70.6424 74.5851 70.4814 74.8636 70.0045L79.4011 62.232C79.6795 61.7551 79.5186 61.1427 79.0416 60.8642C78.5647 60.5858 77.9523 60.7467 77.6738 61.2237L73.6405 68.1325L66.7317 64.0992C66.2547 63.8208 65.6423 63.9817 65.3639 64.4586C65.0854 64.9356 65.2464 65.548 65.7233 65.8264L73.4958 70.3639ZM36.8803 0.810712C26.8922 1.63077 19.3466 2.75826 13.8099 4.11773C8.30684 5.46893 4.66039 7.07832 2.59791 8.95033C1.54905 9.90232 0.872575 10.9562 0.610795 12.108C0.348247 13.2632 0.526683 14.4123 1.00397 15.5089C1.93593 17.6501 4.06209 19.7197 6.70486 21.6501C12.0313 25.5409 20.0283 29.267 27.0031 32.1601C30.5027 33.6117 33.7666 34.8623 36.3404 35.8272C38.9386 36.8012 40.7819 37.4655 41.51 37.7689L42.2792 35.9227C41.5072 35.6011 39.5811 34.9062 37.0425 33.9545C34.4795 32.9936 31.2393 31.752 27.7694 30.3128C20.8054 27.4241 13.0025 23.7736 7.88458 20.0351C5.3052 18.151 3.5481 16.3427 2.8378 14.7107C2.49395 13.9207 2.41149 13.2094 2.56106 12.5513C2.7114 11.8897 3.12005 11.1774 3.94209 10.4313C5.6214 8.90705 8.85982 7.39256 14.2868 6.06003C19.6801 4.73577 27.1097 3.61965 37.044 2.804L36.8803 0.810712ZM41.51 37.7689C44.6236 39.0662 50.7917 40.8155 57.1088 45.4033C63.3803 49.9579 69.7617 57.3071 73.0328 69.7545L74.9671 69.2461C71.5693 56.3164 64.898 48.5883 58.284 43.785C51.7156 39.0147 45.1655 37.1254 42.2792 35.9227L41.51 37.7689Z" fill="#4D4D4D"/>
</svg>
